<?xml version="1.0" encoding="utf-8" standalone="no"?>
<!DOCTYPE svg PUBLIC "-//W3C//DTD SVG 1.1//EN"
  "http://www.w3.org/Graphics/SVG/1.1/DTD/svg11.dtd">
<!-- Created with matplotlib (http://matplotlib.org/) -->
<svg height="216pt" version="1.1" viewBox="0 0 216 216" width="216pt" xmlns="http://www.w3.org/2000/svg" xmlns:xlink="http://www.w3.org/1999/xlink">
 <defs>
  <style type="text/css">
*{stroke-linecap:butt;stroke-linejoin:round;}
  </style>
 </defs>
 <g id="figure_1">
  <g id="patch_1">
   <path d="M 0 216 
L 216 216 
L 216 0 
L 0 0 
z
" style="fill:#ffffff;"/>
  </g>
  <g id="axes_1">
   <g id="patch_2">
    <path d="M 13.32 202.68 
L 202.68 202.68 
L 202.68 13.32 
L 13.32 13.32 
z
" style="fill:#ffffff;"/>
   </g>
   <g id="matplotlib.axis_1">
    <g id="xtick_1">
     <g id="line2d_1">
      <defs>
       <path d="M 0 0 
L 0 3.5 
" id="m5adecb5248" style="stroke:#000000;stroke-width:0.8;"/>
      </defs>
      <g>
       <use style="stroke:#000000;stroke-width:0.8;" x="13.32" xlink:href="#m5adecb5248" y="202.68"/>
      </g>
     </g>
    </g>
    <g id="xtick_2">
     <g id="line2d_2">
      <g>
       <use style="stroke:#000000;stroke-width:0.8;" x="51.22991" xlink:href="#m5adecb5248" y="202.68"/>
      </g>
     </g>
    </g>
    <g id="xtick_3">
     <g id="line2d_3">
      <g>
       <use style="stroke:#000000;stroke-width:0.8;" x="89.13982" xlink:href="#m5adecb5248" y="202.68"/>
      </g>
     </g>
    </g>
    <g id="xtick_4">
     <g id="line2d_4">
      <g>
       <use style="stroke:#000000;stroke-width:0.8;" x="127.04973" xlink:href="#m5adecb5248" y="202.68"/>
      </g>
     </g>
    </g>
    <g id="xtick_5">
     <g id="line2d_5">
      <g>
       <use style="stroke:#000000;stroke-width:0.8;" x="164.95964" xlink:href="#m5adecb5248" y="202.68"/>
      </g>
     </g>
    </g>
    <g id="xtick_6">
     <g id="line2d_6">
      <g>
       <use style="stroke:#000000;stroke-width:0.8;" x="202.86955" xlink:href="#m5adecb5248" y="202.68"/>
      </g>
     </g>
    </g>
   </g>
   <g id="matplotlib.axis_2">
    <g id="ytick_1">
     <g id="line2d_7">
      <defs>
       <path d="M 0 0 
L -3.5 0 
" id="m132be0d790" style="stroke:#000000;stroke-width:0.8;"/>
      </defs>
      <g>
       <use style="stroke:#000000;stroke-width:0.8;" x="13.32" xlink:href="#m132be0d790" y="13.32"/>
      </g>
     </g>
    </g>
    <g id="ytick_2">
     <g id="line2d_8">
      <g>
       <use style="stroke:#000000;stroke-width:0.8;" x="13.32" xlink:href="#m132be0d790" y="51.22991"/>
      </g>
     </g>
    </g>
    <g id="ytick_3">
     <g id="line2d_9">
      <g>
       <use style="stroke:#000000;stroke-width:0.8;" x="13.32" xlink:href="#m132be0d790" y="89.13982"/>
      </g>
     </g>
    </g>
    <g id="ytick_4">
     <g id="line2d_10">
      <g>
       <use style="stroke:#000000;stroke-width:0.8;" x="13.32" xlink:href="#m132be0d790" y="127.04973"/>
      </g>
     </g>
    </g>
    <g id="ytick_5">
     <g id="line2d_11">
      <g>
       <use style="stroke:#000000;stroke-width:0.8;" x="13.32" xlink:href="#m132be0d790" y="164.95964"/>
      </g>
     </g>
    </g>
    <g id="ytick_6">
     <g id="line2d_12">
      <g>
       <use style="stroke:#000000;stroke-width:0.8;" x="13.32" xlink:href="#m132be0d790" y="202.86955"/>
      </g>
     </g>
    </g>
   </g>
   <g id="line2d_13">
    <path clip-path="url(#pe30843c0c9)" d="M 13.32 76.44 
L 202.68 76.44 
L 202.68 139.56 
L 13.32 139.56 
L 202.68 139.56 
" style="fill:none;stroke:#000000;stroke-linecap:square;"/>
   </g>
   <g id="line2d_14">
    <path clip-path="url(#pe30843c0c9)" d="M 76.44 13.32 
L 76.44 202.68 
L 139.56 202.68 
L 139.56 13.32 
L 139.56 202.68 
" style="fill:none;stroke:#000000;stroke-linecap:square;"/>
   </g>
   <g id="patch_3">
    <path d="M 13.32 202.68 
L 13.32 13.32 
" style="fill:none;stroke:#000000;stroke-linecap:square;stroke-linejoin:miter;stroke-width:0.8;"/>
   </g>
   <g id="patch_4">
    <path d="M 202.68 202.68 
L 202.68 13.32 
" style="fill:none;stroke:#000000;stroke-linecap:square;stroke-linejoin:miter;stroke-width:0.8;"/>
   </g>
   <g id="patch_5">
    <path d="M 13.32 202.68 
L 202.68 202.68 
" style="fill:none;stroke:#000000;stroke-linecap:square;stroke-linejoin:miter;stroke-width:0.8;"/>
   </g>
   <g id="patch_6">
    <path d="M 13.32 13.32 
L 202.68 13.32 
" style="fill:none;stroke:#000000;stroke-linecap:square;stroke-linejoin:miter;stroke-width:0.8;"/>
   </g>
   <g id="text_1">
    <!-- 0.000 -->
    <defs>
     <path d="M 31.78125 66.40625 
Q 24.171875 66.40625 20.328125 58.90625 
Q 16.5 51.421875 16.5 36.375 
Q 16.5 21.390625 20.328125 13.890625 
Q 24.171875 6.390625 31.78125 6.390625 
Q 39.453125 6.390625 43.28125 13.890625 
Q 47.125 21.390625 47.125 36.375 
Q 47.125 51.421875 43.28125 58.90625 
Q 39.453125 66.40625 31.78125 66.40625 
z
M 31.78125 74.21875 
Q 44.046875 74.21875 50.515625 64.515625 
Q 56.984375 54.828125 56.984375 36.375 
Q 56.984375 17.96875 50.515625 8.265625 
Q 44.046875 -1.421875 31.78125 -1.421875 
Q 19.53125 -1.421875 13.0625 8.265625 
Q 6.59375 17.96875 6.59375 36.375 
Q 6.59375 54.828125 13.0625 64.515625 
Q 19.53125 74.21875 31.78125 74.21875 
z
" id="DejaVuSans-30"/>
     <path d="M 10.6875 12.40625 
L 21 12.40625 
L 21 0 
L 10.6875 0 
z
" id="DejaVuSans-2e"/>
    </defs>
    <g transform="translate(20.1453 175.8882)scale(0.1728 -0.1728)">
     <use xlink:href="#DejaVuSans-30"/>
     <use x="63.623047" xlink:href="#DejaVuSans-2e"/>
     <use x="95.410156" xlink:href="#DejaVuSans-30"/>
     <use x="159.033203" xlink:href="#DejaVuSans-30"/>
     <use x="222.65625" xlink:href="#DejaVuSans-30"/>
    </g>
   </g>
   <g id="text_2">
    <!-- 1.000 -->
    <defs>
     <path d="M 12.40625 8.296875 
L 28.515625 8.296875 
L 28.515625 63.921875 
L 10.984375 60.40625 
L 10.984375 69.390625 
L 28.421875 72.90625 
L 38.28125 72.90625 
L 38.28125 8.296875 
L 54.390625 8.296875 
L 54.390625 0 
L 12.40625 0 
z
" id="DejaVuSans-31"/>
    </defs>
    <g transform="translate(20.1453 112.7682)scale(0.1728 -0.1728)">
     <use xlink:href="#DejaVuSans-31"/>
     <use x="63.623047" xlink:href="#DejaVuSans-2e"/>
     <use x="95.410156" xlink:href="#DejaVuSans-30"/>
     <use x="159.033203" xlink:href="#DejaVuSans-30"/>
     <use x="222.65625" xlink:href="#DejaVuSans-30"/>
    </g>
   </g>
   <g id="text_3">
    <!-- 0.000 -->
    <g transform="translate(20.1453 49.6482)scale(0.1728 -0.1728)">
     <use xlink:href="#DejaVuSans-30"/>
     <use x="63.623047" xlink:href="#DejaVuSans-2e"/>
     <use x="95.410156" xlink:href="#DejaVuSans-30"/>
     <use x="159.033203" xlink:href="#DejaVuSans-30"/>
     <use x="222.65625" xlink:href="#DejaVuSans-30"/>
    </g>
   </g>
   <g id="text_4">
    <!-- 1.000 -->
    <g transform="translate(83.2653 175.8882)scale(0.1728 -0.1728)">
     <use xlink:href="#DejaVuSans-31"/>
     <use x="63.623047" xlink:href="#DejaVuSans-2e"/>
     <use x="95.410156" xlink:href="#DejaVuSans-30"/>
     <use x="159.033203" xlink:href="#DejaVuSans-30"/>
     <use x="222.65625" xlink:href="#DejaVuSans-30"/>
    </g>
   </g>
   <g id="text_5">
    <!-- 1.000 -->
    <g transform="translate(83.2653 112.7682)scale(0.1728 -0.1728)">
     <use xlink:href="#DejaVuSans-31"/>
     <use x="63.623047" xlink:href="#DejaVuSans-2e"/>
     <use x="95.410156" xlink:href="#DejaVuSans-30"/>
     <use x="159.033203" xlink:href="#DejaVuSans-30"/>
     <use x="222.65625" xlink:href="#DejaVuSans-30"/>
    </g>
   </g>
   <g id="text_6">
    <!-- 1.000 -->
    <g transform="translate(83.2653 49.6482)scale(0.1728 -0.1728)">
     <use xlink:href="#DejaVuSans-31"/>
     <use x="63.623047" xlink:href="#DejaVuSans-2e"/>
     <use x="95.410156" xlink:href="#DejaVuSans-30"/>
     <use x="159.033203" xlink:href="#DejaVuSans-30"/>
     <use x="222.65625" xlink:href="#DejaVuSans-30"/>
    </g>
   </g>
   <g id="text_7">
    <!-- 0.000 -->
    <g transform="translate(146.3853 175.8882)scale(0.1728 -0.1728)">
     <use xlink:href="#DejaVuSans-30"/>
     <use x="63.623047" xlink:href="#DejaVuSans-2e"/>
     <use x="95.410156" xlink:href="#DejaVuSans-30"/>
     <use x="159.033203" xlink:href="#DejaVuSans-30"/>
     <use x="222.65625" xlink:href="#DejaVuSans-30"/>
    </g>
   </g>
   <g id="text_8">
    <!-- 1.000 -->
    <g transform="translate(146.3853 112.7682)scale(0.1728 -0.1728)">
     <use xlink:href="#DejaVuSans-31"/>
     <use x="63.623047" xlink:href="#DejaVuSans-2e"/>
     <use x="95.410156" xlink:href="#DejaVuSans-30"/>
     <use x="159.033203" xlink:href="#DejaVuSans-30"/>
     <use x="222.65625" xlink:href="#DejaVuSans-30"/>
    </g>
   </g>
   <g id="text_9">
    <!-- 0.000 -->
    <g transform="translate(146.3853 49.6482)scale(0.1728 -0.1728)">
     <use xlink:href="#DejaVuSans-30"/>
     <use x="63.623047" xlink:href="#DejaVuSans-2e"/>
     <use x="95.410156" xlink:href="#DejaVuSans-30"/>
     <use x="159.033203" xlink:href="#DejaVuSans-30"/>
     <use x="222.65625" xlink:href="#DejaVuSans-30"/>
    </g>
   </g>
  </g>
 </g>
 <defs>
  <clipPath id="pe30843c0c9">
   <rect height="189.36" width="189.36" x="13.32" y="13.32"/>
  </clipPath>
 </defs>
</svg>
